:FULLY-SPECIFIED
:FORCE-ALL-JOINTS-BE-3DOF
:DEGREES
170
root 6.50447 16.0889 -25.6604 3.8547 29.3079 1.46312
lfemur -26.1679 31.2986 -16.3727
ltibia 42.3558 -0 0
lfoot -8.7478 9.183 0.144329
ltoes 8.68214 -0 0
rfemur -19.8361 -2.95149 -5.25554
rtibia 58.4873 -0 0
rfoot 6.88769 -26.1198 0.0297099
rtoes 42.4459 -0 0
lowerback 1.26731 -4.69606 -1.2212
upperback 0.0417297 -6.29088 -2.58849
thorax -0.822727 -3.1431 -1.83986
lowerneck -9.40746 -7.50272 -1.47618
upperneck 1.72606 -10.0804 5.30865
head 2.56109 -4.85851 1.42688
lclavicle -8.45471e-14 3.33355e-15 -1.03795e-31
lhumerus -50.0498 -41.5719 115.735
lradius 52.3075 -0 0
lwrist 15.4404 0 0
lhand 37.3279 28.7829 -0.000171481
lfingers 7.12502 -0 0
lthumb 60.1437 42.397 -0.00321349
rclavicle -8.45471e-14 3.33355e-15 -1.03795e-31
rhumerus -48.3556 -12.6148 -80.9162
rradius 89.147 -0 0
rwrist -3.02717 0 0
rhand -44.3423 -52.549 -0.728589
rfingers 7.12502 -0 0
rthumb -17.0971 -82.2113 -0.835458
171
root 6.44361 16.0916 -25.6372 3.95119 28.5559 1.43358
lfemur -25.8366 30.125 -14.8701
ltibia 42.5638 -0 0
lfoot -10.1307 6.60343 0.314851
ltoes 2.83576 -0 0
rfemur -18.7812 -2.96169 -5.31049
rtibia 55.8302 -0 0
rfoot 4.72503 -26.5253 0.0906192
rtoes 42.5614 -0 0
lowerback 0.93936 -4.33857 -1.00749
upperback 0.0257837 -5.80387 -2.87694
thorax -0.690021 -2.90187 -2.28628
lowerneck -9.4329 -7.55885 -1.15607
upperneck 1.81685 -10.1983 5.33179
head 2.58125 -4.91068 1.37028
lclavicle -5.75154e-14 3.1226e-15 1.21706e-31
lhumerus -50.556 -41.842 115.89
lradius 52.2664 -0 0
lwrist 15.3292 0 0
lhand 37.6828 28.7983 -0.0013
lfingers 7.12502 -0 0
lthumb 60.4441 42.0739 -0.00735013
rclavicle -5.75154e-14 3.1226e-15 1.21706e-31
rhumerus -48.4863 -10.0263 -82.4799
rradius 89.3877 -0 0
rwrist -2.11745 0 0
rhand -43.1979 -49.9132 -0.83209
rfingers 7.12502 -0 0
rthumb -15.9492 -79.8563 -1.04519
172
root 6.3785 16.0972 -25.6126 4.03844 27.7549 1.36018
lfemur -25.4159 28.6751 -13.1248
ltibia 42.6442 -0 0
lfoot -11.7363 3.55108 0.437409
ltoes -3.35526 0 0
rfemur -17.8842 -3.26609 -5.29452
rtibia 53.3536 -0 0
rfoot 2.28398 -26.9435 0.147095
rtoes 42.6752 -0 0
lowerback 0.600702 -3.98492 -0.79285
upperback 0.0111769 -5.32234 -3.17625
thorax -0.542692 -2.6626 -2.7436
lowerneck -9.48725 -7.58711 -0.788961
upperneck 1.94164 -10.287 5.36421
head 2.61467 -4.94639 1.30929
lclavicle -2.25593e-14 2.73546e-15 2.91727e-31
lhumerus -51.0706 -42.1579 115.972
lradius 52.184 -0 0
lwrist 15.0881 0 0
lhand 38.1066 28.6107 -0.00140523
lfingers 7.12502 -0 0
lthumb 60.8031 41.4822 -0.00884504
rclavicle -2.25593e-14 2.73546e-15 2.91727e-31
rhumerus -48.8412 -7.13571 -84.1805
rradius 89.8821 -0 0
rwrist -1.63217 0 0
rhand -40.3016 -45.8234 -0.57052
rfingers 7.12502 -0 0
rthumb -13.1343 -75.9934 -0.858083
173
root 6.31031 16.1034 -25.5872 4.12858 26.9052 1.27456
lfemur -24.8787 26.9831 -11.2298
ltibia 42.5197 -0 0
lfoot -13.347 0.232435 0.463374
ltoes -9.04985 0 0
rfemur -17.1346 -3.75146 -5.25409
rtibia 51.079 -0 0
rfoot -0.302691 -27.2615 0.173979
rtoes 42.7719 -0 0
lowerback 0.257469 -3.64508 -0.594422
upperback -0.00335312 -4.85993 -3.47915
thorax -0.386255 -2.43196 -3.19456
lowerneck -9.57119 -7.58144 -0.398836
upperneck 2.08536 -10.335 5.3986
head 2.65761 -4.96059 1.24661
lclavicle 1.53635e-14 2.35991e-15 1.87039e-31
lhumerus -51.5719 -42.4811 115.99
lradius 52.0902 -0 0
lwrist 14.823 0 0
lhand 38.5368 28.3377 0.000569443
lfingers 7.12502 -0 0
lthumb 61.1673 40.799 -0.00603304
rclavicle 1.53635e-14 2.35991e-15 1.87039e-31
rhumerus -49.4037 -4.04026 -85.9009
rradius 90.6276 -0 0
rwrist -1.44333 0 0
rhand -36.1405 -40.8748 -0.241844
rfingers 7.12502 -0 0
rthumb -9.12383 -71.1903 -0.547698
174
root 6.24021 16.1077 -25.5615 4.23261 26.0071 1.20748
lfemur -24.1925 25.0815 -9.27743
ltibia 42.1128 -0 0
lfoot -14.7406 -3.14398 0.379092
ltoes -13.4069 0 0
rfemur -16.5214 -4.30313 -5.23109
rtibia 49.0281 -0 0
rfoot -2.90191 -27.3637 0.1583
rtoes 42.8355 -0 0
lowerback -0.0844836 -3.32927 -0.429138
upperback -0.0188019 -4.43026 -3.77843
thorax -0.225975 -2.21679 -3.622
lowerneck -9.68528 -7.5358 -0.00978196
upperneck 2.23298 -10.3307 5.42774
head 2.70631 -4.94827 1.18491
lclavicle 5.12953e-14 2.18373e-15 -1.21191e-31
lhumerus -52.0374 -42.7725 115.95
lradius 52.0145 -0 0
lwrist 14.6403 0 0
lhand 38.9105 28.0968 0.00358089
lfingers 7.12502 -0 0
lthumb 61.4837 40.2013 -0.000477861
rclavicle 5.12953e-14 2.18373e-15 -1.21191e-31
rhumerus -50.1412 -0.833903 -87.5251
rradius 91.6217 -0 0
rwrist -1.42292 0 0
rhand -31.226 -35.6772 -0.050612
rfingers 7.12502 -0 0
rthumb -4.4063 -66.0232 -0.307948
